<svg width="144" height="48" viewBox="0 0 144 48" xmlns="http://www.w3.org/2000/svg"><g fill-rule="nonzero" fill="none"><g fill="#F8F8F8"><path d="M44.982 11.913l-13.133 7.486 2.403 4.11 8.447-4.815.051.179c2.492 9.218-2.34 18.83-11.282 22.443-8.942 3.613-19.21.103-23.977-8.196-4.767-8.299-2.549-18.803 5.18-24.528 7.73-5.725 18.562-4.889 25.296 1.953l3.335-3.418C32.409-1.82 18.009-2.401 8.405 5.796-1.2 13.993-2.7 28.148 4.975 38.132c7.675 9.984 21.886 12.36 32.462 5.43 10.577-6.932 13.879-20.786 7.544-31.649z"/><path d="M23.165 25.044l2.022-1.153c1.23-.702 2.222-1.092 2.974-1.17a3.848 3.848 0 0 1 2.162.401 3.709 3.709 0 0 1 2.1 3.22A3.796 3.796 0 0 1 32 28.174c1.63.135 2.834.865 3.61 2.19a4.117 4.117 0 0 1-.078 4.249c-.386.583-1.091 1.164-2.122 1.752l-4.499 2.566-5.746-13.887zm7.191 10.016l1.497-.783c.739-.418 1.191-.868 1.36-1.344.168-.48.108-.966-.183-1.462a1.939 1.939 0 0 0-2.064-.924c-.413.081-1.112.396-2.091.949l1.481 3.564zm-2.455-5.902l.436-.25c.656-.375 1.071-.674 1.25-.904a1.49 1.49 0 0 0 .281-.877 1.874 1.874 0 0 0-.266-1.016 1.573 1.573 0 0 0-.67-.646 1.237 1.237 0 0 0-.824-.111c-.28.055-.78.291-1.498.701l1.291 3.103z"/></g><g fill="#F8F8F8"><path d="M56.303 26.591c-.872 0-1.518-.281-1.987-.879-.427-.537-.62-1.15-.62-2.01 0-1.218.402-2.079 1.216-2.617.417-.278.912-.42 1.416-.406.679-.01 1.338.226 1.853.664l-.621.72a1.852 1.852 0 0 0-1.215-.448 1.196 1.196 0 0 0-.84.29c-.392.373-.493.993-.493 1.854 0 .82.143 1.35.436 1.64.25.22.578.336.914.323.229.008.456-.04.661-.14v-1.31h-.887l-.152-.944h2.255v2.749a3.771 3.771 0 0 1-1.936.514zM63.013 26.525a30.785 30.785 0 0 1-.545-.944c-.578-1.035-.754-1.317-.964-1.408a.625.625 0 0 0-.184-.05v2.402h-1.149V20.77h2.172c1.03 0 1.71.68 1.71 1.69 0 .86-.579 1.573-1.3 1.59.093.067.175.148.243.24.335.414 1.4 2.236 1.4 2.236h-1.383zm-.612-4.744a2.115 2.115 0 0 0-.66-.083h-.42v1.556h.393c.502 0 .721-.048.88-.19a.781.781 0 0 0 .227-.58c0-.356-.143-.603-.42-.703zM65.909 26.525V20.77h3.32l-.151.944h-1.995v1.335h1.668v.942h-1.652v1.541h2.205v.994zM74 26.525l-.41-1.367h-1.71l-.412 1.367h-1.224l1.913-5.77h1.265l1.838 5.77H74zm-1.014-3.486c-.058-.265-.234-1.018-.234-1.018s-.168.68-.277 1.11c-.11.413-.184.686-.31 1.067h1.14s-.192-.604-.32-1.159zM78.656 26.567H77.59l-1.978-5.796h1.282l.965 2.996c.106.33.196.665.268 1.003.091-.39.203-.773.336-1.151l.988-2.848h1.233l-2.03 5.796zM81.945 26.525V20.77h3.32l-.15.944h-1.996v1.335h1.669v.942h-1.652v1.541h2.205v.994zM88.504 26.65a4.21 4.21 0 0 1-1.987-.522l.437-.903c.543.282 1.013.464 1.6.464.671 0 1.023-.273 1.023-.786 0-.373-.244-.605-.763-.746l-.645-.174c-.578-.157-.94-.38-1.15-.728a1.645 1.645 0 0 1-.243-.879c0-1.051.855-1.779 2.088-1.779a3.445 3.445 0 0 1 1.945.58l-.553.827c-.529-.314-.923-.438-1.358-.438-.478 0-.814.272-.814.662 0 .298.158.447.647.58l.704.19c.956.256 1.476.86 1.476 1.715-.001 1.167-.956 1.936-2.407 1.936zM95.171 26.508c-.184.009-.427.017-.745.017h-1.837V20.77h1.971c.712 0 1.082.108 1.433.415.312.25.489.63.479 1.026.013.361-.131.71-.395.96a1.113 1.113 0 0 1-.536.299c.72.207 1.156.695 1.156 1.448 0 .794-.502 1.54-1.526 1.59zm-.259-4.677a1.182 1.182 0 0 0-.486-.075h-.679v1.317h.696c.171.015.343-.01.503-.075a.729.729 0 0 0 .302-.588.622.622 0 0 0-.336-.58zm.033 2.243a1.393 1.393 0 0 0-.452-.05h-.73v1.556h.762a.856.856 0 0 0 .545-.132.861.861 0 0 0 .302-.67c0-.33-.167-.63-.427-.704zM98.46 26.525V20.77h3.32l-.15.944h-1.995v1.335h1.668v.942H99.65v1.541h2.205v.994zM105.02 26.65a4.217 4.217 0 0 1-1.988-.522l.436-.903c.545.282 1.015.464 1.602.464.67 0 1.024-.273 1.024-.786 0-.373-.245-.605-.765-.746l-.645-.174c-.578-.157-.94-.38-1.15-.728a1.649 1.649 0 0 1-.242-.879c0-1.051.855-1.779 2.088-1.779a3.445 3.445 0 0 1 1.945.58l-.554.827c-.528-.314-.923-.438-1.358-.438-.478 0-.813.272-.813.662 0 .298.16.447.646.58l.704.19c.957.256 1.476.86 1.476 1.715 0 1.167-.956 1.936-2.406 1.936zM112.526 21.731h-1.392v4.795h-1.191V21.73h-1.426v-.96h4.2z"/></g><g fill="#F5C756"><path d="M114.029 21.028a9.507 9.507 0 0 1 1.55-.124c1.049 0 1.795.248 2.289.695.512.455.805 1.102.805 2.004 0 .91-.294 1.656-.814 2.17-.536.52-1.408.803-2.507.803-.442.002-.884-.02-1.324-.068v-5.48zm.729 4.934c.245.026.491.037.738.034 1.568 0 2.406-.863 2.406-2.368.008-1.317-.747-2.153-2.289-2.153a4.2 4.2 0 0 0-.855.074v4.413zM123.37 23.909h-2.187v2.011h2.447v.605h-3.184v-5.58h3.06v.604h-2.323v1.764h2.187zM125.327 25.647c.39.238.84.364 1.299.365.746 0 1.182-.39 1.182-.951 0-.514-.302-.82-1.065-1.102-.921-.33-1.491-.811-1.491-1.59 0-.87.728-1.515 1.827-1.515.43-.015.858.08 1.241.273l-.2.588a2.113 2.113 0 0 0-1.066-.265c-.771 0-1.065.456-1.065.836 0 .522.345.778 1.123 1.076.957.364 1.435.82 1.435 1.64 0 .86-.638 1.614-1.971 1.614a2.953 2.953 0 0 1-1.442-.364l.193-.605zM131.123 20.945v5.58h-.739v-5.58zM137.546 26.277a5.19 5.19 0 0 1-1.745.306c-.854 0-1.558-.216-2.113-.738-.486-.463-.787-1.208-.787-2.078 0-1.663 1.164-2.88 3.06-2.88.485-.012.967.075 1.416.256l-.184.587a2.846 2.846 0 0 0-1.25-.24c-1.374 0-2.272.845-2.272 2.245 0 1.414.856 2.252 2.181 2.252.331.017.662-.033.972-.15v-1.664h-1.14v-.579h1.862v2.683zM139.493 26.525v-5.58h.805l1.802 2.822c.376.583.712 1.188 1.007 1.814l.026-.008a24.292 24.292 0 0 1-.085-2.294v-2.334h.687v5.58h-.737l-1.794-2.831c-.39-.598-.74-1.22-1.048-1.864l-.026.008c.042.704.051 1.374.051 2.302v2.385h-.688z"/></g></g></svg>