<?xml version="1.0" encoding="UTF-8"?>
<svg width="41px" height="41px" viewBox="0 0 41 41" version="1.1" xmlns="http://www.w3.org/2000/svg" xmlns:xlink="http://www.w3.org/1999/xlink">
    <!-- Generator: Sketch 49.3 (51167) - http://www.bohemiancoding.com/sketch -->
    <title>Group 5</title>
    <desc>Created with Sketch.</desc>
    <defs></defs>
    <g id="Page-1" stroke="none" stroke-width="1" fill="none" fill-rule="evenodd">
        <g id="Home" transform="translate(-1062.000000, -3208.000000)">
            <g id="Group-14-Copy-2" transform="translate(0.000000, 3014.000000)">
                <g id="Group" transform="translate(952.000000, 195.000000)">
                    <g id="Group-5" transform="translate(110.000000, 0.000000)">
                        <g id="Group-3-Copy" stroke="#FFFFFF">
                            <g id="Group-4">
                                <ellipse id="Oval-2" cx="20.5" cy="19.378882" rx="19.8111664" ry="19.312961"></ellipse>
                            </g>
                        </g>
                        <path d="M15.7897147,16.9975072 L18.1142774,16.9975072 L18.1142774,25.4658686 L15.7897147,25.4658686 L15.7897147,16.9975072 Z M16.8927425,15.9382636 L16.8759131,15.9382636 C16.0344424,15.9382636 15.4888889,15.2909037 15.4888889,14.4711273 C15.4888889,13.6345883 16.0505706,13 16.9088707,13 C17.7664696,13 18.2937912,13.6329919 18.3106206,14.4687327 C18.3106206,15.288509 17.7664696,15.9382636 16.8927425,15.9382636 L16.8927425,15.9382636 Z M27.4153335,25.4666668 L24.7794265,25.4666668 L24.7794265,21.0836173 C24.7794265,19.936569 24.3671059,19.1543092 23.4604212,19.1543092 C22.7669091,19.1543092 22.3812351,19.6819355 22.2017213,20.1920008 C22.1344037,20.3739959 22.144922,20.6286294 22.144922,20.8840612 L22.144922,25.4666668 L19.533558,25.4666668 C19.533558,25.4666668 19.5672168,17.7031375 19.533558,16.9975072 L22.144922,16.9975072 L22.144922,18.3265506 C22.2991917,17.7454433 23.1336501,16.9160883 24.4652775,16.9160883 C26.1173649,16.9160883 27.4153335,18.1349768 27.4153335,20.7571436 L27.4153335,25.4666668 L27.4153335,25.4666668 Z" id="Shape" fill="#F5C756"></path>
                    </g>
                </g>
            </g>
        </g>
    </g>
</svg>