<?xml version="1.0" encoding="UTF-8"?>
<svg width="178px" height="13px" viewBox="0 0 178 13" version="1.1" xmlns="http://www.w3.org/2000/svg" xmlns:xlink="http://www.w3.org/1999/xlink">
    <!-- Generator: Sketch 49.3 (51167) - http://www.bohemiancoding.com/sketch -->
    <title>GBD Logo Vector</title>
    <desc>Created with Sketch.</desc>
    <defs></defs>
    <g id="Page-1" stroke="none" stroke-width="1" fill="none" fill-rule="evenodd">
        <g id="Home" transform="translate(-203.000000, -3066.000000)" fill-rule="nonzero">
            <g id="Group-14-Copy-2" transform="translate(0.000000, 3014.000000)">
                <g id="Group-6" transform="translate(203.000000, 52.000000)">
                    <g id="GBD-Logo-Vector">
                        <path d="M5.76294554,12.1535315 C4.04605919,12.1535315 2.77459548,11.6073547 1.85064065,10.4480378 C1.00931823,9.40418421 0.628416797,8.21593265 0.628416797,6.54378274 C0.628416797,4.18078249 1.42078234,2.50945928 3.02305867,1.46477894 C3.84467163,0.924178115 4.81988771,0.648498554 5.81105344,0.676652911 C7.14837299,0.655700346 8.44699995,1.11387176 9.46017977,1.96410914 L8.23710695,3.36289506 C7.57451468,2.79964074 6.72398455,2.49058448 5.84444599,2.49347631 C5.23975673,2.46588205 4.64767398,2.66791515 4.1929298,3.05701398 C3.41924145,3.78010583 3.22058408,4.98461593 3.22058408,6.65566357 C3.22058408,8.2478986 3.50187385,9.27659597 4.07831979,9.8395825 C4.57254217,10.2675713 5.21782055,10.4924657 5.8786875,10.4670521 C6.32926757,10.4828599 6.77675477,10.3886989 7.1804309,10.1931369 L7.1804309,7.65101714 L5.43383085,7.65101714 L5.13471285,5.81903747 L9.57365784,5.81903747 L9.57365784,11.1551467 C8.42056057,11.819826 7.10287138,12.165053 5.76294554,12.1535315 Z" id="G-2" fill="#FFFFFF"></path>
                        <path d="M18.9739431,12.0259433 C18.5268225,11.2863173 18.3468424,10.981263 17.9005708,10.1931369 C16.7623943,8.18341556 16.4165833,7.63668758 16.0022893,7.45977257 C15.8875991,7.40945946 15.7656018,7.37673863 15.640631,7.36277245 L15.640631,12.0259433 L13.3784274,12.0259433 L13.3784274,0.853292347 L17.6538055,0.853292347 C19.6831103,0.853292347 21.0213591,2.17161225 21.0213591,4.13421141 C21.0213591,5.80470791 19.8809187,7.18751085 18.4614524,7.2186501 C18.6449516,7.34968896 18.8063937,7.50773517 18.9399846,7.68711662 C19.5996289,8.48984778 21.6960017,12.0270456 21.6960017,12.0270456 L18.9739431,12.0259433 Z M17.7689815,2.81561593 C17.3467294,2.69433586 16.9072292,2.63981521 16.4672381,2.65413277 L15.640348,2.65413277 L15.640348,5.67574183 L16.4163003,5.67574183 C17.4047763,5.67574183 17.8357666,5.58094625 18.149034,5.30565328 C18.4497148,5.00607301 18.6108539,4.59939048 18.5947396,4.18078249 C18.5944566,3.48993216 18.3131668,3.00934062 17.7686985,2.8158915 L17.7689815,2.81561593 Z" id="R" fill="#FFFFFF"></path>
                        <polygon id="E" fill="#FFFFFF" points="24.6747302 12.0259433 24.6747302 0.853292347 31.210048 0.853292347 30.9131939 2.68609872 26.9858907 2.68609872 26.9858907 5.27644301 30.2702459 5.27644301 30.2702459 7.10621813 27.0178683 7.10621813 27.0178683 10.0980658 31.3594655 10.0980658 31.3594655 12.0270456"></polygon>
                        <path d="M40.6055225,12.0259433 L39.7970267,9.37166712 L36.431454,9.37166712 L35.6204113,12.0259433 L33.2102051,12.0259433 L36.9759223,0.822153101 L39.466214,0.822153101 L43.0844947,12.0259433 L40.6055225,12.0259433 Z M38.6073464,5.25770435 C38.4941513,4.74349345 38.1469254,3.28077563 38.1469254,3.28077563 C38.1469254,3.28077563 37.8175277,4.60074895 37.6016081,5.43517049 C37.3873864,6.23790166 37.2393839,6.76809553 36.9917696,7.5077215 L39.2358621,7.5077215 C39.2358621,7.5077215 38.8575075,6.33490178 38.6073464,5.25770435 Z" id="A" fill="#FFFFFF"></path>
                        <path d="M49.770928,12.107236 L47.6754041,12.107236 L43.7812104,0.853567915 L46.3051777,0.853567915 L48.2034591,6.67192211 C48.4138228,7.31158366 48.5904492,7.96130455 48.7326461,8.61853829 C48.9117416,7.86270928 49.132029,7.11670011 49.3925734,6.38367742 L51.3392458,0.853567915 L53.7658653,0.853567915 L49.770928,12.107236 Z" id="V" fill="#FFFFFF"></path>
                        <polygon id="E-2" fill="#FFFFFF" points="56.2476673 12.0259433 56.2476673 0.853292347 62.7829852 0.853292347 62.487829 2.68609872 58.5574129 2.68609872 58.5574129 5.27644301 61.843466 5.27644301 61.843466 7.10621813 58.5922204 7.10621813 58.5922204 10.0980658 62.9338176 10.0980658 62.9338176 12.0270456"></polygon>
                        <path d="M69.1606789,12.2665147 C67.7904999,12.2521094 66.4458169,11.9039577 65.2492229,11.2538003 L66.1078076,9.50228661 C67.1780671,10.0484635 68.1037198,10.4020179 69.2605735,10.4020179 C70.5801451,10.4020179 71.273465,9.87182402 71.273465,8.87564374 C71.273465,8.15282746 70.7923859,7.70227289 69.7708003,7.42835776 L68.5001856,7.0907863 C67.362858,6.78573192 66.651427,6.35198703 66.236284,5.6760174 C65.9172435,5.16217121 65.7519005,4.57177639 65.7588838,3.9713504 C65.7588838,1.92993864 67.4420946,0.516823157 69.8689971,0.516823157 C71.2331958,0.504679724 72.5689011,0.897009872 73.6986695,1.64169395 L72.6088839,3.24908525 C71.5689041,2.63842536 70.7921029,2.39785402 69.9352162,2.39785402 C68.9951311,2.39785402 68.3335058,2.92667006 68.3335058,3.6831057 C68.3335058,4.26179964 68.6447923,4.55087104 69.6069505,4.80797649 L70.9935902,5.17806505 C72.8757413,5.67574183 73.8984589,6.84856155 73.8984589,8.50665746 C73.8970439,10.7726576 72.0165907,12.2665147 69.1606789,12.2665147 Z" id="S" fill="#FFFFFF"></path>
                        <path d="M82.2864971,11.9925995 C81.9251218,12.0099603 81.4460237,12.0259433 80.8197719,12.0259433 L77.2034721,12.0259433 L77.2034721,0.853292347 L81.0837994,0.853292347 C82.4860034,0.853292347 83.2138478,1.06244887 83.9054697,1.65795249 C84.5191197,2.14459437 84.866861,2.88045146 84.8472528,3.65086419 C84.8727348,4.35131135 84.5901493,5.02907857 84.0704516,5.5139831 C83.7816689,5.80069826 83.4154057,6.00191111 83.0140585,6.09433045 C84.4332418,6.49638495 85.2918264,7.4446163 85.2918264,8.90650742 C85.2918264,10.4480378 84.3016525,11.8947727 82.2864971,11.9925995 Z M81.7771193,2.91206492 C81.4721845,2.79813245 81.1458354,2.74872092 80.8197719,2.76711587 L79.482938,2.76711587 L79.482938,5.32273853 L80.8525985,5.32273853 C81.1898809,5.35232894 81.5295322,5.30271695 81.8430554,5.17806505 C82.215688,4.91103588 82.4361859,4.48773657 82.4373296,4.03721128 C82.459898,3.56902106 82.2026467,3.13028502 81.7771193,2.91123822 L81.7771193,2.91206492 Z M81.8416405,7.26604789 C81.55243,7.18602809 81.2515606,7.15343321 80.9513612,7.1695989 L79.5154816,7.1695989 L79.5154816,10.1917591 L81.0153164,10.1917591 C81.3925231,10.2267852 81.7707461,10.135826 82.0878398,9.93382694 C82.4743004,9.60713293 82.6919788,9.13029813 82.6821139,8.63204115 C82.6838118,7.99189543 82.3541312,7.41154808 81.8416405,7.26742573 L81.8416405,7.26604789 Z" id="B-2" fill="#FFFFFF"></path>
                        <polygon id="E-3" fill="#FFFFFF" points="88.7632365 12.0259433 88.7632365 0.853292347 95.3002523 0.853292347 95.0025492 2.68609872 91.0760949 2.68609872 91.0760949 5.27644301 94.3587522 5.27644301 94.3587522 7.10621813 91.1075066 7.10621813 91.1075066 10.0980658 95.4482548 10.0980658 95.4482548 12.0270456"></polygon>
                        <path d="M101.676531,12.2665147 C100.305554,12.2520437 98.9600637,11.9039096 97.7625282,11.2538003 L98.6219618,9.50228661 C99.6956171,10.0484635 100.620138,10.4020179 101.775577,10.4020179 C103.095148,10.4020179 103.791015,9.87182402 103.791015,8.87564374 C103.791015,8.15282746 103.309936,7.70227289 102.285804,7.42835776 L101.015189,7.0907863 C99.8770122,6.78573192 99.1664301,6.35198703 98.7535511,5.6760174 C98.4343047,5.16217914 98.2684014,4.57188294 98.2744529,3.9713504 C98.2744529,1.92993864 99.9587957,0.516823157 102.386264,0.516823157 C103.750476,0.504592446 105.086207,0.896930257 106.215937,1.64169395 L105.124453,3.24908525 C104.085888,2.63842536 103.308521,2.39785402 102.451634,2.39785402 C101.509851,2.39785402 100.850773,2.92667006 100.850773,3.6831057 C100.850773,4.26179964 101.164889,4.55087104 102.122237,4.80797649 L103.508876,5.17806505 C105.391876,5.67574183 106.414594,6.84856155 106.414594,8.50665746 C106.413462,10.7726576 104.531594,12.2665147 101.676531,12.2665147 Z" id="S-2" fill="#FFFFFF"></path>
                        <polygon id="T" fill="#FFFFFF" points="116.454431 2.71834024 113.714545 2.71834024 113.714545 12.0264945 111.369426 12.0264945 111.369426 2.71834024 108.561905 2.71834024 108.561905 0.853843484 116.831088 0.853843484"></polygon>
                        <path d="M119.413917,1.35262254 C120.42305,1.19033471 121.444271,1.10986819 122.467071,1.11205121 C124.5309,1.11205121 125.999323,1.59374502 126.972801,2.46233706 C127.980237,3.34608538 128.557532,4.60157566 128.557532,6.35253817 C128.557532,8.11920809 127.979388,9.56759635 126.954973,10.5643278 C125.899429,11.5753887 124.183108,12.1240457 122.019667,12.1240457 C121.148958,12.1287717 120.27868,12.0851612 119.413068,11.9934262 L119.413917,1.35262254 Z M120.849513,10.9322118 C121.33175,10.983309 121.816786,11.0051211 122.301806,10.9975215 C125.389768,10.9975215 127.03902,9.32316705 127.03902,6.4004871 C127.054585,3.84486444 125.568899,2.22038788 122.53329,2.22038788 C121.968518,2.21162695 121.404336,2.25992609 120.849796,2.36451023 L120.849513,10.9322118 Z" id="D" fill="#F5C756"></path>
                        <polygon id="E-4" fill="#F5C756" points="137.806702 6.94638838 133.499063 6.94638838 133.499063 10.8517458 138.317212 10.8517458 138.317212 12.0262189 132.048185 12.0262189 132.048185 1.19169052 138.072427 1.19169052 138.072427 2.36451023 133.499063 2.36451023 133.499063 5.78872493 137.806136 5.78872493"></polygon>
                        <path d="M141.658165,10.3207252 C142.426549,10.7829632 143.311776,11.0280687 144.214958,11.0286608 C145.684796,11.0286608 146.543381,10.2730518 146.543381,9.18235153 C146.543381,8.18479341 145.949107,7.5909432 144.446442,7.04311294 C142.632208,6.4013138 141.510162,5.46906543 141.510162,3.95674527 C141.510162,2.26806124 142.944344,1.01505108 145.106936,1.01505108 C145.954948,0.98685511 146.796345,1.16961532 147.551666,1.54607166 L147.155483,2.68692543 C146.516025,2.33665018 145.792102,2.15903475 145.058545,2.17243896 C143.539467,2.17243896 142.962172,3.05756511 142.962172,3.79663994 C142.962172,4.80852763 143.639927,5.30620442 145.172306,5.88489836 C147.055872,6.59200723 147.997089,7.47658225 147.997089,9.06799058 C147.997089,10.7398649 146.742038,12.201756 144.116762,12.201756 C143.123906,12.208901 142.146028,11.9658807 141.278112,11.4963006 L141.658165,10.3207252 Z" id="S-3" fill="#F5C756"></path>
                        <polygon id="I" fill="#F5C756" points="153.06936 1.19169052 153.06936 12.0262189 151.614804 12.0262189 151.614804 1.19169052"></polygon>
                        <path d="M165.714382,11.5434228 C164.613618,11.9343151 163.45143,12.1358183 162.279761,12.1389264 C160.597965,12.1389264 159.211325,11.7195111 158.119842,10.70597 C157.162494,9.80678985 156.569635,8.36033057 156.569635,6.67081984 C156.569635,3.44143209 158.861835,1.07843185 162.593877,1.07843185 C163.548843,1.05625826 164.498241,1.22614987 165.382721,1.57748648 L165.019648,2.7169624 C164.247083,2.3809556 163.405774,2.22164875 162.560202,2.25125156 C159.85399,2.25125156 158.087015,3.89033325 158.087015,6.60799021 C158.087015,9.35485744 159.771075,10.9804363 162.380221,10.9804363 C163.031733,11.0146627 163.683404,10.9160161 164.293501,10.6908137 L164.293501,7.46004814 L162.048277,7.46004814 L162.048277,6.33517735 L165.714382,6.33517735 L165.714382,11.5434228 Z" id="G-3" fill="#F5C756"></path>
                        <path d="M169.548866,12.0259433 L169.548866,1.19169052 L171.133597,1.19169052 L174.68198,6.67192211 C175.421244,7.80196705 176.082991,8.97836167 176.662893,10.1934125 L176.714963,10.1774295 C176.581676,8.73097026 176.548283,7.41154808 176.548283,5.72369076 L176.548283,1.19169052 L177.899833,1.19169052 L177.899833,12.0262189 L176.449521,12.0262189 L172.916702,6.52862647 C172.14823,5.36819474 171.458987,4.15978929 170.853439,2.91123822 L170.803633,2.92556778 C170.885983,4.29266332 170.903245,5.59444911 170.903245,7.39611624 L170.903245,12.0256677 L169.548866,12.0259433 Z" id="N" fill="#F5C756"></path>
                    </g>
                </g>
            </g>
        </g>
    </g>
</svg>