<?xml version="1.0" encoding="UTF-8"?>
<svg width="144px" height="48px" viewBox="0 0 144 48" version="1.1" xmlns="http://www.w3.org/2000/svg" xmlns:xlink="http://www.w3.org/1999/xlink">
    <!-- Generator: Sketch 49.3 (51167) - http://www.bohemiancoding.com/sketch -->
    <title>Logo</title>
    <desc>Created with Sketch.</desc>
    <defs></defs>
    <g id="Page-1" stroke="none" stroke-width="1" fill="none" fill-rule="evenodd">
        <g id="Home" transform="translate(-189.000000, -96.000000)" fill-rule="nonzero">
            <g id="Logo" transform="translate(189.000000, 96.000000)">
                <g id="Logo-Icon" fill="#F8F8F8">
                    <path d="M44.981658,11.9127671 L31.8493291,19.3989834 L34.2519998,23.5091493 L42.6985746,18.6935401 L42.7504628,18.8725268 C45.2419769,28.0910238 40.4104145,37.7021693 31.4682683,41.3155388 C22.5261222,44.9289082 12.2578089,41.4193661 7.49070229,33.1203975 C2.72359564,24.8214288 4.94208319,14.3171768 12.6710986,8.59189028 C20.400114,2.86660372 31.2329868,3.70302942 37.9669691,10.5450302 L41.3016162,7.12653955 C32.4091211,-1.81875073 18.0085387,-2.40138319 8.40483904,5.79557044 C-1.19886059,13.9925241 -2.70025237,28.1478161 4.97505063,38.1320046 C12.6503536,48.1161932 26.8606467,50.4928957 37.4371295,43.5613581 C48.0136124,36.6298205 51.3160452,22.7757565 44.9812267,11.913051 L44.981658,11.9127671 Z" id="Logo-Icon-G"></path>
                    <g id="Logo-Icon-B-Group" transform="translate(23.044278, 22.587088)">
                        <path d="M0.120398928,2.45701657 L2.14275373,1.30381304 C3.37327789,0.60178498 4.36465746,0.211547175 5.11689244,0.133099622 C5.86178518,0.0541241559 6.61371583,0.193960617 7.27849337,0.535092315 C8.528332,1.14135707 9.33628575,2.38035236 9.37809692,3.75482971 C9.39310084,4.39056327 9.24780144,5.02000551 8.95527473,5.58651071 C10.5862194,5.72169192 11.789754,6.4518011 12.5658786,7.77683824 C13.3292249,9.10056459 13.2991177,10.7303882 12.4873899,12.0257406 C12.1020142,12.6091994 11.3962359,13.1903317 10.3655913,13.7781986 L5.86706083,16.343458 L0.120398928,2.45701657 Z M7.31209596,12.473161 L8.80858891,11.6895018 C9.54759778,11.2722033 10.0001787,10.8214768 10.1680676,10.3455262 C10.3370312,9.86684107 10.2763564,9.37974788 9.98604331,8.88424669 C9.57298678,8.16741241 8.73988379,7.7942835 7.92165428,7.95965125 C7.50899966,8.04120078 6.80929714,8.35637873 5.83023438,8.90849114 L7.31209596,12.473161 Z M4.85699938,6.5712275 L5.29259303,6.32106878 C5.9486494,5.94589193 6.3640319,5.64687696 6.54258437,5.41728929 C6.72701694,5.16098972 6.82537568,4.85400852 6.82380453,4.53959096 C6.83376056,4.18316513 6.7415649,3.83121074 6.55783573,3.52426247 C6.40555194,3.24701029 6.17187263,3.02175489 5.88751997,2.87811095 C5.63462848,2.74729806 5.34336556,2.70796598 5.06419466,2.7669293 C4.78396646,2.82215279 4.28426751,3.05786279 3.56571778,3.46805941 L4.85699938,6.5712275 Z" id="Logo-Icon-B"></path>
                    </g>
                </g>
                <g id="Logo-Greaves-Best" transform="translate(53.676846, 20.157482)" fill="#F8F8F8">
                    <path d="M2.62637027,6.43347508 C1.75433132,6.43347508 1.10853092,6.15214937 0.63923684,5.55500645 C0.211913317,5.01733652 0.0184462935,4.40528986 0.0184462935,3.543996 C0.0184462935,2.32685777 0.420903698,1.46598973 1.23473006,0.927893978 C1.65204278,0.649440373 2.14737342,0.50744287 2.65080519,0.521944665 C3.33005501,0.511152382 3.98965213,0.747148102 4.50426527,1.18508984 L3.88304352,1.9055789 C3.54650041,1.61545689 3.11450012,1.45626766 2.66776589,1.45775719 C2.36063281,1.44354389 2.05990282,1.54760745 1.82892967,1.74802514 C1.43595877,2.12047654 1.33505695,2.74089768 1.33505695,3.60162377 C1.33505695,4.42175494 1.47792932,4.95161815 1.77071709,5.24160222 C2.02174196,5.46205145 2.34949101,5.57789042 2.6851578,5.56480033 C2.91401592,5.57294266 3.14130311,5.52444203 3.34633782,5.42371165 L3.34633782,4.11431221 L2.45920672,4.11431221 L2.30727905,3.17069296 L4.56190292,3.17069296 L4.56190292,5.91922531 C3.97622307,6.26158946 3.30694388,6.43940959 2.62637027,6.43347508 Z" id="Logo-Greaves-Best-G"></path>
                    <path d="M9.33648508,6.36775672 C9.10938412,5.9867889 9.0179688,5.82966097 8.79129904,5.42371165 C8.21319772,4.3885409 8.03755381,4.10693131 7.82712608,4.01580562 C7.76887278,3.98989026 7.70690803,3.97303636 7.64343303,3.96584263 L7.64343303,6.36775672 L6.49441714,6.36775672 L6.49441714,0.61292841 L8.6659623,0.61292841 C9.69668446,0.61292841 10.3764063,1.2919709 10.3764063,2.30286985 C10.3764063,3.16331207 9.79715508,3.87556859 9.07618139,3.89160785 C9.16938411,3.95910357 9.25138357,4.04051028 9.31923691,4.13290639 C9.6542827,4.54637854 10.71907,6.36832448 10.71907,6.36832448 L9.33648508,6.36775672 Z M8.72446236,1.62368542 C8.50999258,1.56121627 8.2867621,1.53313368 8.06328234,1.5405084 L7.64328929,1.5405084 L7.64328929,3.096884 L8.03741008,3.096884 C8.53947569,3.096884 8.75838377,3.04805653 8.91749818,2.90625815 C9.07021963,2.75194983 9.15206523,2.54247509 9.14388047,2.32685777 C9.14373674,1.97101338 9.00086436,1.72346947 8.72431863,1.62382736 L8.72446236,1.62368542 Z" id="Logo-Greaves-Best-R"></path>
                    <polygon id="Logo-Greaves-Best-E-3" points="12.2320224 6.36775672 12.2320224 0.61292841 15.5514336 0.61292841 15.4006558 1.55697347 13.4059044 1.55697347 13.4059044 2.89121247 15.0740903 2.89121247 15.0740903 3.8336962 13.4221464 3.8336962 13.4221464 5.37474224 15.6273255 5.37474224 15.6273255 6.36832448"></polygon>
                    <path d="M20.3235722,6.36775672 L19.9129219,5.00058756 L18.2034841,5.00058756 L17.7915402,6.36775672 L16.567351,6.36775672 L18.4800298,0.596889154 L19.744896,0.596889154 L21.582689,6.36775672 L20.3235722,6.36775672 Z M19.3086609,2.88156053 C19.251167,2.6166999 19.0748044,1.86328068 19.0748044,1.86328068 C19.0748044,1.86328068 18.9074971,2.54317481 18.7978275,2.9729701 C18.6890202,3.38644225 18.6138469,3.65953542 18.488079,4.04050324 L19.6278959,4.04050324 C19.6278959,4.04050324 19.4357224,3.43640524 19.3086609,2.88156053 Z" id="Logo-Greaves-Best-A"></path>
                    <path d="M24.9788545,6.40962911 L23.9144984,6.40962911 L21.936564,0.61307035 L23.2185346,0.61307035 L24.1827075,3.60999825 C24.2895552,3.93947622 24.3792671,4.27413558 24.4514916,4.61266467 C24.5424575,4.22335096 24.6543457,3.83909527 24.7866811,3.46152868 L25.7754327,0.61307035 L27.0079585,0.61307035 L24.9788545,6.40962911 Z" id="Logo-Greaves-Best-V"></path>
                    <polygon id="Logo-Greaves-Best-E-2" points="28.2685126 6.36775672 28.2685126 0.61292841 31.5879238 0.61292841 31.4380084 1.55697347 29.4416759 1.55697347 29.4416759 2.89121247 31.1107243 2.89121247 31.1107243 3.8336962 29.4593553 3.8336962 29.4593553 5.37474224 31.6645344 5.37474224 31.6645344 6.36832448"></polygon>
                    <path d="M34.8272747,6.49167061 C34.1313349,6.48425072 33.4483451,6.30492417 32.8405724,5.97003994 L33.2766638,5.06786727 C33.8202688,5.34919298 34.2904252,5.53130241 34.8780131,5.53130241 C35.5482484,5.53130241 35.9003986,5.25820924 35.9003986,4.74509499 C35.9003986,4.37278553 35.6560495,4.14071311 35.1371669,3.99962443 L34.4917977,3.82574754 C33.9141276,3.6686196 33.5527783,3.44520554 33.3419194,3.09702594 C33.1798727,2.83235316 33.0958919,2.52825157 33.0994388,2.21898312 C33.0994388,1.16748924 33.9543733,0.43961928 35.1870428,0.43961928 C35.8799451,0.43336442 36.558375,0.635446508 37.1322057,1.01901966 L36.5786831,1.84695755 C36.0504577,1.5324178 35.6559057,1.4085039 35.2206768,1.4085039 C34.7431898,1.4085039 34.4071379,1.68088737 34.4071379,2.07051355 C34.4071379,2.36858822 34.5652462,2.51748361 35.0539444,2.64991393 L35.7582449,2.84053978 C36.714225,3.096884 37.2336825,3.700982 37.2336825,4.5550369 C37.2329638,5.72221214 36.2778461,6.49167061 34.8272747,6.49167061 Z" id="Logo-Greaves-Best-S-2"></path>
                    <path d="M41.4941253,6.35058194 C41.310576,6.35952418 41.067233,6.36775672 40.7491479,6.36775672 L38.9123611,6.36775672 L38.9123611,0.61292841 L40.8832525,0.61292841 C41.5954583,0.61292841 41.9651442,0.720661112 42.316432,1.02739414 C42.6281164,1.27805448 42.8047408,1.65708102 42.7947814,2.05390653 C42.8077242,2.41469406 42.6641937,2.76379957 42.4002294,3.01356503 C42.2535513,3.16124677 42.0675193,3.26488783 41.8636675,3.31249134 C42.5844974,3.51958227 43.0205888,4.00799891 43.0205888,4.7609923 C43.0205888,5.55500645 42.5176607,6.30019312 41.4941253,6.35058194 Z M41.2354027,1.67336454 C41.0805206,1.61468 40.9147617,1.58922903 40.7491479,1.59870393 L40.0701448,1.59870393 L40.0701448,2.91505845 L40.7658211,2.91505845 C40.9371333,2.93029993 41.1096486,2.9047457 41.2688929,2.84053978 C41.45816,2.70299794 41.5701551,2.4849642 41.570736,2.25290686 C41.5821989,2.01175064 41.4515361,1.78576572 41.2354027,1.67293871 L41.2354027,1.67336454 Z M41.2681742,3.91602158 C41.1212788,3.87480484 40.9684615,3.85801582 40.8159846,3.86634247 L40.0866743,3.86634247 L40.0866743,5.42300195 L40.8484686,5.42300195 C41.0400591,5.44104323 41.2321656,5.39419181 41.3932235,5.29014581 C41.5895142,5.1218717 41.7000771,4.87626281 41.6950665,4.61961974 C41.695929,4.28989238 41.5284779,3.99096607 41.2681742,3.91673128 L41.2681742,3.91602158 Z" id="Logo-Greaves-Best-B"></path>
                    <polygon id="Logo-Greaves-Best-E" points="44.7837834 6.36775672 44.7837834 0.61292841 48.104057 0.61292841 47.952848 1.55697347 45.9585278 1.55697347 45.9585278 2.89121247 47.6258513 2.89121247 47.6258513 3.8336962 45.9744824 3.8336962 45.9744824 5.37474224 48.1792303 5.37474224 48.1792303 6.36832448"></polygon>
                    <path d="M51.3426892,6.49167061 C50.6463444,6.48421689 49.9629442,6.30489938 49.3546934,5.97003994 L49.7912159,5.06786727 C50.3365457,5.34919298 50.8061272,5.53130241 51.3929964,5.53130241 C52.0632317,5.53130241 52.4166755,5.25820924 52.4166755,4.74509499 C52.4166755,4.37278553 52.1723264,4.14071311 51.6521502,3.99962443 L51.006781,3.82574754 C50.4286797,3.6686196 50.0677616,3.44520554 49.8580526,3.09702594 C49.6959013,2.83235724 49.6116359,2.52830646 49.6147096,2.21898312 C49.6147096,1.16748924 50.470219,0.43961928 51.7031761,0.43961928 C52.3960848,0.433319464 53.074528,0.6354055 53.6483389,1.01901966 L53.0939539,1.84695755 C52.5664472,1.5324178 52.1716077,1.4085039 51.7363788,1.4085039 C51.2580294,1.4085039 50.9232711,1.68088737 50.9232711,2.07051355 C50.9232711,2.36858822 51.0828167,2.51748361 51.5690715,2.64991393 L52.273372,2.84053978 C53.2297832,3.096884 53.7492407,3.700982 53.7492407,4.5550369 C53.7486658,5.72221214 52.7928295,6.49167061 51.3426892,6.49167061 Z" id="Logo-Greaves-Best-S"></path>
                    <polygon id="Logo-Greaves-Best-T" points="58.8486635 1.57358049 57.4570233 1.57358049 57.4570233 6.3680406 56.2658931 6.3680406 56.2658931 1.57358049 54.8399003 1.57358049 54.8399003 0.61321229 59.0399745 0.61321229"></polygon>
                </g>
                <g id="Logo-Design" transform="translate(113.401787, 20.157482)" fill="#F5C756">
                    <path d="M0.626900982,0.870124268 C1.13945862,0.786532773 1.65815646,0.745085938 2.1776556,0.74621037 C3.22591341,0.74621037 3.97175322,0.994322048 4.46620089,1.44171793 C4.97789673,1.89692054 5.27111569,2.54360063 5.27111569,3.44548942 C5.27111569,4.35546881 4.97746552,5.10150713 4.45714559,5.61490526 C3.92101484,6.13568429 3.04926335,6.41828747 1.9504109,6.41828747 C1.50816113,6.42072176 1.06613041,6.39825875 0.626469778,6.35100776 L0.626900982,0.870124268 Z M1.35606756,5.80439559 C1.60100468,5.83071485 1.8473635,5.84194986 2.09371449,5.83803544 C3.66214849,5.83803544 4.49983483,4.97560606 4.49983483,3.47018704 C4.50774024,2.15383252 3.75313261,1.31709433 2.21128954,1.31709433 C1.92443114,1.31258174 1.63787222,1.33745974 1.35621129,1.39132912 L1.35606756,5.80439559 Z" id="Logo-Design-D"></path>
                    <polygon id="Logo-Design-E" points="9.96894348 3.75137081 7.78101255 3.75137081 7.78101255 5.76294902 10.228241 5.76294902 10.228241 6.36789866 7.0440843 6.36789866 7.0440843 0.787231122 10.1039104 0.787231122 10.1039104 1.39132912 7.78101255 1.39132912 7.78101255 3.15507953 9.96865601 3.15507953"></polygon>
                    <path d="M11.9251739,5.48943002 C12.3154507,5.72752036 12.7650746,5.85376973 13.2238177,5.8540747 C13.9703762,5.8540747 14.4064676,5.46487434 14.4064676,4.90307456 C14.4064676,4.3892506 14.1046245,4.08336922 13.3413928,3.80119186 C12.4199091,3.47061286 11.8500006,2.99042876 11.8500006,2.21146029 C11.8500006,1.34165001 12.5784485,0.696247377 13.6768698,0.696247377 C14.1075911,0.681724148 14.5349529,0.775860589 14.9185946,0.969766372 L14.7173659,1.55739929 C14.3925729,1.37697892 14.0248786,1.28549246 13.6522911,1.29239672 C12.8807228,1.29239672 12.5875038,1.74830902 12.5875038,2.12899296 C12.5875038,2.65019781 12.9317487,2.90654203 13.7100725,3.2046167 C14.6667713,3.56883556 15.1448332,4.02446398 15.1448332,4.84416933 C15.1448332,5.70532125 14.5073694,6.45831464 13.1739418,6.45831464 C12.6696516,6.46199487 12.1729689,6.33681957 11.7321381,6.09494742 L11.9251739,5.48943002 Z" id="Logo-Design-S"></path>
                    <polygon id="Logo-Design-I" points="17.7211355 0.787231122 17.7211355 6.36789866 16.9823387 6.36789866 16.9823387 0.787231122"></polygon>
                    <path d="M24.1437807,6.11921922 C23.5846816,6.32056068 22.9943843,6.42435131 22.3992716,6.42595225 C21.5450558,6.42595225 20.8407553,6.20991908 20.2863703,5.68786259 C19.8001155,5.22471132 19.4989911,4.47966659 19.4989911,3.60943049 C19.4989911,1.94603189 20.6632429,0.728893651 22.5588172,0.728893651 C23.0438625,0.717472441 23.5260794,0.804980505 23.9753236,0.985947569 L23.7909118,1.57287079 C23.3985118,1.39979983 22.9711952,1.31774379 22.5417128,1.33299165 C21.167177,1.33299165 20.269697,2.17725267 20.269697,3.5770681 C20.269697,4.9919292 21.1250627,5.82923514 22.4502975,5.82923514 C22.7812124,5.84686457 23.1122084,5.79605348 23.4220884,5.68005587 L23.4220884,4.01594757 L22.2816966,4.01594757 L22.2816966,3.43654718 L24.1437807,3.43654718 L24.1437807,6.11921922 Z" id="Logo-Design-G"></path>
                    <path d="M26.0913871,6.36775672 L26.0913871,0.787231122 L26.8963019,0.787231122 L28.6985924,3.60999825 C29.0740788,4.19206374 29.4101927,4.79800311 29.7047359,5.42385359 L29.7311831,5.41562105 C29.663484,4.67057632 29.6465233,3.99096607 29.6465233,3.12158161 L29.6465233,0.787231122 L30.3330007,0.787231122 L30.3330007,6.36789866 L29.5963599,6.36789866 L27.8019748,3.53618929 C27.411653,2.93847211 27.0615736,2.31604455 26.7540045,1.67293871 L26.7287072,1.68031961 C26.770534,2.38448554 26.7793018,3.0550116 26.7793018,3.98301741 L26.7793018,6.36761478 L26.0913871,6.36775672 Z" id="Logo-Design-N"></path>
                </g>
            </g>
        </g>
    </g>
</svg>