<?xml version="1.0" encoding="UTF-8"?>
<svg width="132px" height="10px" viewBox="0 0 132 10" version="1.1" xmlns="http://www.w3.org/2000/svg" xmlns:xlink="http://www.w3.org/1999/xlink">
    <!-- Generator: Sketch 49.3 (51167) - http://www.bohemiancoding.com/sketch -->
    <title>GBD Text Logo White &amp; Yellow</title>
    <desc>Created with Sketch.</desc>
    <defs></defs>
    <g id="Page-1" stroke="none" stroke-width="1" fill="none" fill-rule="evenodd">
        <g id="Project-Copy-3" transform="translate(-217.000000, -87.000000)">
            <g id="Floating-Menu-Copy-2" transform="translate(160.000000, 60.000000)">
                <g id="GBD-Text-Logo-White-&amp;-Yellow" transform="translate(57.000000, 27.000000)">
                    <g id="Floating-Menu-Logo" transform="translate(0.507812, 0.000000)">
                        <g id="Logo-Greaves-Best" fill="#F8F8F8" fill-rule="nonzero">
                            <path d="M3.82499133,9.36527413 C2.55497184,9.36527413 1.6144415,8.95574547 0.930971308,8.08647854 C0.308626171,7.30378703 0.0268648001,6.41282458 0.0268648001,5.15903049 C0.0268648001,3.38723016 0.612995437,2.13405594 1.79823532,1.35074456 C2.40600092,0.945396858 3.12739022,0.73868967 3.86057783,0.759800078 C4.84982321,0.744089643 5.81044682,1.08763098 6.55991875,1.72514715 L5.65518424,2.77397029 C5.16504982,2.35163678 4.53589353,2.11990342 3.88527905,2.12207175 C3.43797679,2.10138131 2.99999985,2.25286767 2.66361534,2.54461771 C2.09130064,3.08679894 1.94434931,3.98995221 1.94434931,5.24291981 C1.94434931,6.43679296 2.15242569,7.20812015 2.57883573,7.63025287 C2.94442315,7.95116302 3.4217501,8.11979097 3.91060827,8.10073559 C4.24391249,8.11258846 4.57492885,8.04198561 4.87353717,7.89535139 L4.87353717,5.9892455 L3.58153778,5.9892455 L3.36027347,4.61560951 L6.64386103,4.61560951 L6.64386103,8.61667558 C5.79088901,9.11505851 4.81616465,9.37391306 3.82499133,9.36527413 Z" id="Logo-Greaves-Best-G"></path>
                            <path d="M13.5974637,9.26960725 C13.2667186,8.71502858 13.1335832,8.48629587 12.803466,7.89535139 C11.9615312,6.38844296 11.7057271,5.97850105 11.3992645,5.84584848 C11.3144256,5.80812322 11.2241814,5.78358883 11.1317377,5.77311685 L11.1317377,9.26960725 L9.45833475,9.26960725 L9.45833475,0.892246027 L12.6209282,0.892246027 C14.1220506,0.892246027 15.1119834,1.88073498 15.1119834,3.35231071 C15.1119834,4.60486507 14.268374,5.64170402 13.2183628,5.66505253 C13.3541013,5.76330673 13.4735236,5.8818113 13.5723438,6.01631323 C14.0602976,6.61820879 15.6110318,9.27043374 15.6110318,9.27043374 L13.5974637,9.26960725 Z M12.7061265,2.36361514 C12.3937771,2.27267817 12.0686689,2.23179806 11.7431976,2.24253351 L11.1315284,2.24253351 L11.1315284,4.50816506 L11.7055177,4.50816506 C12.4367157,4.50816506 12.7555289,4.43708642 12.9872598,4.2306691 C13.2096802,4.00604093 13.3288784,3.70110646 13.3169583,3.38723016 C13.316749,2.86922393 13.1086726,2.50887177 12.7059171,2.36382176 L12.7061265,2.36361514 Z" id="Logo-Greaves-Best-R"></path>
                            <polygon id="Logo-Greaves-Best-E-3" points="17.8144643 9.26960725 17.8144643 0.892246027 22.6487861 0.892246027 22.4291964 2.26650188 19.5240818 2.26650188 19.5240818 4.20876697 21.9535933 4.20876697 21.9535933 5.58074996 19.5477363 5.58074996 19.5477363 7.82406613 22.7593136 7.82406613 22.7593136 9.27043374"></polygon>
                            <path d="M29.5988301,9.26960725 L29.0007675,7.27940541 L26.5111776,7.27940541 L25.9112311,9.26960725 L24.1283473,9.26960725 L26.9139331,0.868897521 L28.756058,0.868897521 L31.4325817,9.26960725 L29.5988301,9.26960725 Z M28.1207342,4.19471654 C28.0370013,3.80915626 27.7801505,2.71239636 27.7801505,2.71239636 C27.7801505,2.71239636 27.5364876,3.70212505 27.376767,4.32778236 C27.2183024,4.92967791 27.1088216,5.32722238 26.9256557,5.88180105 L28.5856614,5.88180105 C28.5856614,5.88180105 28.3057841,5.00240954 28.1207342,4.19471654 Z" id="Logo-Greaves-Best-A"></path>
                            <path d="M36.3786869,9.33056131 L34.8285807,9.33056131 L31.947958,0.892452651 L33.8149934,0.892452651 L35.2191949,5.25511062 C35.3748057,5.73473501 35.5054602,6.22190198 35.6106464,6.71470217 C35.7431274,6.1479743 35.906079,5.58860945 36.0988095,5.03898198 L37.5388069,0.892452651 L39.333832,0.892452651 L36.3786869,9.33056131 Z" id="Logo-Greaves-Best-V"></path>
                            <polygon id="Logo-Greaves-Best-E-2" points="41.1696769 9.26960725 41.1696769 0.892246027 46.0039986 0.892246027 45.785665 2.26650188 42.8782477 2.26650188 42.8782477 4.20876697 45.3090152 4.20876697 45.3090152 5.58074996 42.9039956 5.58074996 42.9039956 7.82406613 46.1155728 7.82406613 46.1155728 9.27043374"></polygon>
                            <path d="M50.7217223,9.44998995 C49.70817,9.43918873 48.7134778,9.17814128 47.8283302,8.69064695 L48.4634447,7.37734516 C49.2551397,7.78687382 49.9398659,8.05197234 50.7956166,8.05197234 C51.7717334,8.05197234 52.2845977,7.65442787 52.2845977,6.90748231 C52.2845977,6.3655077 51.9287327,6.02767755 51.1730429,5.82229335 L50.2331405,5.56917902 C49.3918337,5.34044631 48.8655721,5.01522022 48.5584816,4.50837169 C48.3224801,4.12308487 48.2001722,3.68040114 48.2053378,3.23019596 C48.2053378,1.69952578 49.4504468,0.63995819 51.2456812,0.63995819 C52.2548097,0.630852927 53.242861,0.925025848 54.0785762,1.48339713 L53.2724372,2.6886346 C52.5031407,2.23075594 51.9285234,2.05037324 51.294665,2.05037324 C50.5992628,2.05037324 50.1098438,2.44688459 50.1098438,3.01406732 C50.1098438,3.4479776 50.3401094,3.66472612 51.0518394,3.85750626 L52.077568,4.13500222 C53.4698376,4.50816506 54.2263648,5.38755657 54.2263648,6.63081285 C54.2253182,8.32988154 52.8343046,9.44998995 50.7217223,9.44998995 Z" id="Logo-Greaves-Best-S-2"></path>
                            <path d="M60.4311856,9.24460575 C60.1638682,9.25762306 59.8094685,9.26960725 59.3462159,9.26960725 L56.6711576,9.26960725 L56.6711576,0.892246027 L59.541523,0.892246027 C60.5787649,0.892246027 61.1171678,1.0490736 61.6287761,1.49558795 C62.0827068,1.86047671 62.3399389,2.41222944 62.3254342,2.98989231 C62.3442838,3.51509434 62.135249,4.02329072 61.7508169,4.38687681 C61.5371978,4.60185859 61.2662647,4.75272993 60.9693791,4.82202683 C62.019181,5.12349117 62.6542954,5.83448416 62.6542954,6.93062419 C62.6542954,8.08647854 61.9218414,9.17125425 60.4311856,9.24460575 Z M60.0543873,2.43593352 C59.8288202,2.35050585 59.5874124,2.31345662 59.3462159,2.32724932 L58.3573298,2.32724932 L58.3573298,4.24347979 L59.3704985,4.24347979 C59.6199939,4.26566696 59.8712416,4.22846742 60.1031618,4.13500222 C60.3788065,3.93478118 60.5419138,3.61738728 60.5427598,3.27957909 C60.5594542,2.92852556 60.3691596,2.59955704 60.0543873,2.43531365 L60.0543873,2.43593352 Z M60.1021151,5.70059185 C59.8881796,5.64059223 59.6656198,5.61615227 59.4435555,5.62827347 L58.381403,5.62827347 L58.381403,7.89431827 L59.4908646,7.89431827 C59.7698929,7.92058114 60.049673,7.85237906 60.2842343,7.70091826 C60.5701079,7.45595994 60.7311295,7.09842462 60.7238323,6.72482674 C60.7250883,6.24483932 60.481216,5.80968929 60.1021151,5.70162497 L60.1021151,5.70059185 Z" id="Logo-Greaves-Best-B"></path>
                            <polygon id="Logo-Greaves-Best-E" points="65.2221756 9.26960725 65.2221756 0.892246027 70.0577533 0.892246027 69.8375357 2.26650188 66.933049 2.26650188 66.933049 4.20876697 69.3613045 4.20876697 69.3613045 5.58074996 66.9562849 5.58074996 66.9562849 7.82406613 70.1672342 7.82406613 70.1672342 9.27043374"></polygon>
                            <path d="M74.7744303,9.44998995 C73.7602881,9.43913949 72.7649983,9.1781052 71.8791543,8.69064695 L72.5148967,7.37734516 C73.3091037,7.78687382 73.9929926,8.05197234 74.8476966,8.05197234 C75.8238135,8.05197234 76.3385618,7.65442787 76.3385618,6.90748231 C76.3385618,6.3655077 75.9826967,6.02767755 75.2251229,5.82229335 L74.2852205,5.56917902 C73.4432858,5.34044631 72.9176522,5.01522022 72.6122362,4.50837169 C72.3760825,4.12309082 72.2533601,3.68048104 72.2578365,3.23019596 C72.2578365,1.69952578 73.5037828,0.63995819 75.2994359,0.63995819 C76.3085738,0.630787486 77.2966445,0.924966152 78.1323308,1.48339713 L77.3249359,2.6886346 C76.5566861,2.23075594 75.9816501,2.05037324 75.3477917,2.05037324 C74.6511335,2.05037324 74.1635984,2.44688459 74.1635984,3.01406732 C74.1635984,3.4479776 74.3959574,3.66472612 75.1041288,3.85750626 L76.1298574,4.13500222 C77.522755,4.50816506 78.2792822,5.38755657 78.2792822,6.63081285 C78.2784448,8.32988154 76.8863846,9.44998995 74.7744303,9.44998995 Z" id="Logo-Greaves-Best-S"></path>
                            <polygon id="Logo-Greaves-Best-T" points="85.705976 2.29067689 83.67922 2.29067689 83.67922 9.27002049 81.9444826 9.27002049 81.9444826 2.29067689 79.8676962 2.29067689 79.8676962 0.892659275 85.9845974 0.892659275"></polygon>
                        </g>
                        <g id="Floating-Menu-Logo-Design" transform="translate(86.954412, 1.000000)" fill="#F5C756" fill-rule="nonzero">
                            <path d="M0.91300562,0.266648615 C1.65948395,0.144963638 2.41490475,0.0846290641 3.17149256,0.0862659108 C4.69815354,0.0862659108 5.78437921,0.447444566 6.50448257,1.09872324 C7.2497058,1.76136623 7.67674384,2.70274492 7.67674384,4.01563347 C7.67674384,5.34029958 7.24907781,6.42631503 6.49129463,7.17367384 C5.71048489,7.9317771 4.44088406,8.34316537 2.84053809,8.34316537 C2.19645467,8.34670899 1.55269027,8.31400936 0.912377623,8.24522562 L0.91300562,0.266648615 Z M1.97494874,7.44951681 C2.33167009,7.48783002 2.69046198,7.50418494 3.04924246,7.49848668 C5.33347729,7.49848668 6.55346634,6.24303959 6.55346634,4.05158604 C6.56497962,2.13535557 5.46598468,0.917307417 3.22047634,0.917307417 C2.80270169,0.910738385 2.38536321,0.946953545 1.97515807,1.02537174 L1.97494874,7.44951681 Z" id="Logo-Design-D"></path>
                            <polygon id="Logo-Design-E" points="14.518563 4.46090807 11.3321057 4.46090807 11.3321057 7.38918262 14.8961986 7.38918262 14.8961986 8.26981387 10.2588586 8.26981387 10.2588586 0.145980231 14.7151261 0.145980231 14.7151261 1.02537174 11.3321057 1.02537174 11.3321057 3.59288088 14.5181444 3.59288088"></polygon>
                            <path d="M17.3675766,6.99101828 C17.9359676,7.33760877 18.5907906,7.52139125 19.2588946,7.52183519 C20.3461669,7.52183519 20.9812813,6.95527233 20.9812813,6.13745476 C20.9812813,5.38947608 20.5416833,4.94420148 19.4301284,4.53343308 C18.0880986,4.05220591 17.2580958,3.3531971 17.2580958,2.21924489 C17.2580958,0.953053359 18.3189922,0.0135342822 19.9187102,0.0135342822 C20.5460038,-0.00760732814 21.1684046,0.129428033 21.7271325,0.411698624 L21.4340672,1.26712176 C20.9610453,1.004482 20.425543,0.871304246 19.8829144,0.881354851 C18.7592182,0.881354851 18.3321802,1.54503096 18.3321802,2.09919638 C18.3321802,2.85791951 18.8335312,3.23108235 19.967066,3.66499264 C21.3603822,4.19518968 22.0566217,4.85845254 22.0566217,6.05170582 C22.0566217,7.3052933 21.1282326,8.40143332 19.1862562,8.40143332 C18.4518184,8.40679067 17.7284601,8.22457173 17.0864432,7.87247602 L17.3675766,6.99101828 Z" id="Logo-Design-S"></path>
                            <polygon id="Floating-Menu-Logo-Design-I" points="25.8086951 0.145980231 25.8086951 8.26981387 24.7327267 8.26981387 24.7327267 0.145980231"></polygon>
                            <path d="M35.1625027,7.90780872 C34.3482424,8.2009035 33.4885455,8.35199256 32.6218358,8.35432306 C31.3777735,8.35432306 30.3520449,8.03984142 29.5446499,7.27987855 C28.8364785,6.60566462 28.3979272,5.52109553 28.3979272,4.25428413 C28.3979272,1.83285812 30.0935194,0.0610577896 32.8541947,0.0610577896 C33.5606046,0.0444318201 34.2628953,0.171818186 34.9171652,0.435253754 L34.6485918,1.28964377 C34.0771084,1.03770264 33.4547734,0.91825283 32.8292841,0.940449299 C30.8274387,0.940449299 29.5203674,2.16944852 29.5203674,4.20717387 C29.5203674,6.26680135 30.7661043,7.485676 32.6961488,7.485676 C33.1780864,7.51133933 33.6601422,7.43737312 34.1114449,7.26851423 L34.1114449,4.8460551 L32.4506019,4.8460551 L32.4506019,4.00261616 L35.1625027,4.00261616 L35.1625027,7.90780872 Z" id="Floating-Menu-Logo-Design-G"></path>
                            <path d="M37.9989564,8.26960725 L37.9989564,0.145980231 L39.1712176,0.145980231 L41.7960362,4.25511062 C42.3428868,5.10242919 42.8323962,5.9845012 43.2613628,6.89555801 L43.29988,6.88357382 C43.2012844,5.79900474 43.1765832,4.80968929 43.1765832,3.54411763 L43.1765832,0.145980231 L44.1763546,0.145980231 L44.1763546,8.26981387 L43.1035262,8.26981387 L40.4902209,4.14766617 C39.9217643,3.2775633 39.4119159,2.37148926 38.9639786,1.43531365 L38.9271361,1.44605809 C38.9880518,2.47111948 39.0008211,3.447211 39.0008211,4.79811835 L39.0008211,8.26940062 L37.9989564,8.26960725 Z" id="Floating-Menu-Logo-Design-N"></path>
                        </g>
                    </g>
                </g>
            </g>
        </g>
    </g>
</svg>