<?xml version="1.0" encoding="UTF-8"?>
<svg width="41px" height="41px" viewBox="0 0 41 41" version="1.1" xmlns="http://www.w3.org/2000/svg" xmlns:xlink="http://www.w3.org/1999/xlink">
    <!-- Generator: Sketch 49.3 (51167) - http://www.bohemiancoding.com/sketch -->
    <title>Group 3</title>
    <desc>Created with Sketch.</desc>
    <defs></defs>
    <g id="Page-1" stroke="none" stroke-width="1" fill="none" fill-rule="evenodd">
        <g id="Home" transform="translate(-1007.000000, -3208.000000)">
            <g id="Group-14-Copy-2" transform="translate(0.000000, 3014.000000)">
                <g id="Group" transform="translate(952.000000, 195.000000)">
                    <g id="Group-3" transform="translate(55.000000, 0.000000)">
                        <g id="Group-4" stroke="#FFFFFF">
                            <ellipse id="Oval-2" cx="20.5" cy="19.378882" rx="19.8111664" ry="19.312961"></ellipse>
                        </g>
                        <path d="M25.468997,15.677309 C25.9921814,15.332195 26.3936275,14.7849655 26.5820318,14.1330835 C26.0921806,14.4534324 25.5508805,14.6851061 24.9733487,14.8105295 C24.5124828,14.2672945 23.8537923,13.9285714 23.1248125,13.9285714 C21.7262727,13.9285714 20.5929482,15.178811 20.5929482,16.7206399 C20.5929482,16.9395317 20.6139625,17.1528313 20.6574404,17.3565445 C18.553109,17.2399087 16.6871816,16.1294723 15.4371914,14.4390526 C15.2190771,14.8528699 15.0944404,15.332195 15.0944404,15.843475 C15.0944404,16.8117117 15.5415384,17.666508 16.2212432,18.1682016 C15.8060291,18.1538218 15.4154524,18.0268007 15.0734261,17.8190932 L15.0734261,17.8534448 C15.0734261,19.2067392 15.945883,20.3355497 17.1060189,20.5911898 C16.8929771,20.6566975 16.6697904,20.6894514 16.4379082,20.6894514 C16.274866,20.6894514 16.1154469,20.672675 15.9618249,20.6399212 C16.2835616,21.7487598 17.2190615,22.5572214 18.3277485,22.578791 C17.460364,23.3281359 16.3683435,23.7739082 15.1821209,23.7739082 C14.9777747,23.7739082 14.7756023,23.761925 14.5777778,23.7355622 C15.6987835,24.5272474 17.0299325,24.9897961 18.4603561,24.9897961 C23.11974,24.9897961 25.666097,20.7349873 25.666097,17.0449832 C25.666097,16.9235542 25.6646477,16.802924 25.6595753,16.6838917 C26.1544989,16.2900462 26.5849304,15.7979392 26.9233335,15.2379277 C26.4689892,15.460015 25.9805872,15.6102035 25.468997,15.677309 Z" id="Shape" fill="#F5C756"></path>
                    </g>
                </g>
            </g>
        </g>
    </g>
</svg>