<?xml version="1.0" encoding="UTF-8"?>
<svg width="41px" height="41px" viewBox="0 0 41 41" version="1.1" xmlns="http://www.w3.org/2000/svg" xmlns:xlink="http://www.w3.org/1999/xlink">
    <!-- Generator: Sketch 49.3 (51167) - http://www.bohemiancoding.com/sketch -->
    <title>Group 11</title>
    <desc>Created with Sketch.</desc>
    <defs></defs>
    <g id="Page-1" stroke="none" stroke-width="1" fill="none" fill-rule="evenodd">
        <g id="Home" transform="translate(-952.000000, -3208.000000)">
            <g id="Group-14-Copy-2" transform="translate(0.000000, 3014.000000)">
                <g id="Group" transform="translate(952.000000, 195.000000)">
                    <g id="Group-11">
                        <g id="Group-3-Copy-2" stroke="#FFFFFF">
                            <g id="Group-4">
                                <ellipse id="Oval-2" cx="20.5" cy="19.378882" rx="19.8111664" ry="19.312961"></ellipse>
                            </g>
                        </g>
                        <g id="Group-10" transform="translate(8.200000, 12.071429)">
                            <path d="M22.7753158,8.41916299 C22.5482166,8.38778611 22.4084471,8.43857603 22.2473676,8.54151027 C21.8000636,8.89907131 20.963954,9.32886691 19.8936418,9.32886691 C18.2136925,9.32886691 16.7309664,8.09049577 16.5109706,5.96296243 C16.5109706,5.96296243 20.2266649,7.60178387 22.9031767,5.74738743 C23.5146941,5.32436382 23.7516127,4.79637438 23.674938,4.12662463 C23.3926831,1.65936314 21.9214478,0 19.4849885,0 C16.6845855,0 14.5642267,2.20721709 14.5642267,5.58440822 C14.5642267,8.73090024 16.6845855,11.1428571 19.7772717,11.1428571 C21.3527596,11.1428571 22.5193852,10.451437 23.1035337,10.0105805 C23.2692096,9.87265766 23.409188,9.66475758 23.4405264,9.40200439 C23.4994427,8.90877783 23.2159343,8.4807881 22.7753158,8.41916299 Z M2.69447908,9.86656287 L0.10822208,1.96997173 C0.0547378087,1.81669903 0.00167138347,1.56771555 0,1.37110213 L0,1.36184707 C0,0.791645564 0.418263714,0.261173059 1.07365496,0.261173059 L13.1132569,0.261173059 C13.7149549,0.261173059 14.1513949,0.772458261 14.1513949,1.36184707 C14.1513949,1.538596 14.0956125,1.77674429 14.0623938,1.89389971 L11.4385306,9.86656287 C11.2007763,10.5922944 10.7446976,10.9261535 10.2186296,10.9261535 L10.1436263,10.9261535 C9.59938205,10.9261535 9.14288544,10.5922944 8.94169266,9.90832347 L7.78175253,6.09163023 C7.78175253,6.09163023 7.64407231,5.54806521 7.06807178,5.54806521 C6.48893741,5.54806521 6.34248243,6.09163023 6.34248243,6.09163023 L5.17376754,9.90832347 C4.97069445,10.5922944 4.5175406,10.9261535 3.98792097,10.9261535 L3.91500686,10.9261535 C3.36867339,10.9261535 2.91280355,10.5922944 2.69447908,9.86656287 Z" id="Fill-2" fill="#686868"></path>
                            <path d="M6.21820341,15.6999889 C6.21820341,15.0831896 7.12640491,15.0448766 7.6078358,15.0448766 L7.78401007,15.0448766 L7.78401007,15.1861557 C7.78401007,15.6674628 7.4314513,16.2198086 6.85562632,16.2198086 C6.43495243,16.2198086 6.21820341,15.9564067 6.21820341,15.6999889 Z M5.55408106,15.7512725 C5.55408106,16.3608882 6.1032066,16.7142857 6.70615149,16.7142857 C7.5060836,16.7142857 7.82437459,16.0340304 7.82437459,16.0340304 L7.83803965,16.0340304 C7.83803965,16.0340304 7.81764717,16.1104569 7.81764717,16.2327791 L7.81764717,16.4255414 C7.81764717,16.5662219 7.89900689,16.6374602 8.0417543,16.6374602 L8.21078069,16.6374602 C8.35331787,16.6374602 8.43467759,16.5662219 8.43467759,16.4255414 L8.43467759,14.5823269 C8.43467759,13.7601938 7.93979186,13.3197938 7.0860404,13.3197938 C6.75387411,13.3197938 6.47594763,13.3710774 6.26613627,13.4469052 C6.03193801,13.5315131 6.00061347,13.5847921 6.00061347,13.7605929 L6.00061347,13.878126 C6.00061347,13.9150422 5.99514744,13.9862804 6.06284209,14.018607 C6.13221859,14.0533281 6.20600996,14.0225979 6.45639607,13.941981 C6.62163829,13.8889015 6.83187012,13.837618 7.03138013,13.837618 C7.45142332,13.837618 7.77665196,14.0172102 7.77665196,14.5501999 L7.77665196,14.6340095 L7.60110838,14.6340095 C6.88905318,14.6340095 5.55408106,14.7431617 5.55408106,15.7512725 Z M21.7915466,16.4249427 C21.7915466,16.5662219 21.8731166,16.6372606 22.0150231,16.6372606 L22.2252549,16.6372606 C22.3738888,16.6372606 22.4487313,16.5662219 22.4487313,16.4249427 L22.4487313,15.2951083 C22.4487313,14.653166 22.7741702,13.9661262 23.4448097,13.9661262 C23.601012,13.9661262 23.6888889,13.8950875 23.6888889,13.7540078 L23.6888889,13.5740165 C23.6888889,13.4329369 23.6277114,13.3622973 23.4719296,13.3622973 C22.9568617,13.3622973 22.5704556,13.7861349 22.421191,14.2161584 L22.4079464,14.2161584 C22.4079464,14.2161584 22.4281286,14.1072058 22.4281286,13.9729107 L22.4281286,13.5997581 C22.4281286,13.4590775 22.3530758,13.3878393 22.2044419,13.3878393 L22.0150231,13.3878393 C21.8731166,13.3878393 21.7915466,13.4590775 21.7915466,13.5997581 L21.7915466,16.4249427 Z M18.668763,14.6661366 C18.7633674,14.1201763 19.1703762,13.7991054 19.6721996,13.7991054 C20.1258798,13.7991054 20.485166,14.0942352 20.5053483,14.6661366 L18.668763,14.6661366 Z M17.9705831,15.0127495 C17.9705831,15.9759623 18.709548,16.7142857 19.7869861,16.7142857 C20.3359014,16.7142857 20.7427,16.5025665 20.9462044,16.3672737 C21.0612013,16.3034187 21.0820142,16.1942666 21.0141093,16.0845158 L20.9525114,15.9885337 C20.8785098,15.8666106 20.7763371,15.8542387 20.6476752,15.9180937 C20.4921037,16.0272458 20.2005121,16.174711 19.8277711,16.174711 C19.2174681,16.174711 18.6824281,15.7833995 18.6412227,15.0772032 L20.9325394,15.0772032 C21.0679287,15.0772032 21.1629535,14.974237 21.1629535,14.8584998 C21.1629535,13.9527565 20.6342204,13.3110138 19.6852339,13.3110138 C18.709548,13.3110138 17.9705831,13.9788972 17.9705831,15.0127495 Z M16.2748532,16.4249427 C16.2748532,16.5662219 16.3560027,16.6372606 16.4979092,16.6372606 L16.7085615,16.6372606 C16.8576158,16.6372606 16.9322481,16.5662219 16.9322481,16.4249427 L16.9322481,13.8950875 L17.5896431,13.8950875 C17.73197,13.8950875 17.8131195,13.8182619 17.8131195,13.6833682 L17.8131195,13.5997581 C17.8131195,13.4652635 17.73197,13.3878393 17.5896431,13.3878393 L16.9322481,13.3878393 L16.9322481,13.2916577 C16.9322481,12.6880284 17.3316886,12.6301598 17.5824952,12.6175884 C17.7386974,12.6050169 17.8198469,12.5469488 17.8198469,12.4052705 L17.8198469,12.2837464 C17.8198469,12.1486532 17.7452146,12.0714286 17.5961602,12.0714286 L17.5143801,12.0714286 C17.162452,12.0714286 16.2748532,12.2386489 16.2748532,13.2661157 L16.2748532,13.3878393 L16.0574735,13.3878393 C15.915567,13.3878393 15.8339971,13.4652635 15.8339971,13.5997581 L15.8339971,13.6833682 C15.8339971,13.8182619 15.915567,13.8950875 16.0574735,13.8950875 L16.2748532,13.8950875 L16.2748532,16.4249427 Z M13.0450616,16.3608882 C13.2342702,16.4955823 13.6271935,16.7142857 14.1967116,16.7142857 C14.9358867,16.7142857 15.4303519,16.3096047 15.4303519,15.7574584 C15.4303519,14.653166 13.6614613,14.8846404 13.6614613,14.235714 C13.6614613,13.9595411 13.9120577,13.8246474 14.2374965,13.8246474 C14.5625149,13.8246474 14.7933495,13.9337996 14.9358867,14.0110242 C15.0641281,14.0688928 15.1658803,14.0557227 15.2339954,13.9399855 L15.2949626,13.8436044 C15.3624471,13.7284658 15.3420546,13.6193137 15.2201201,13.5614451 C15.0571904,13.4652635 14.7458371,13.3110138 14.2713439,13.3110138 C13.6004941,13.3110138 13.0309761,13.6318851 13.0309761,14.2486845 C13.0309761,15.3465914 14.8002871,15.1346727 14.8002871,15.7706285 C14.8002871,16.0462028 14.5555773,16.2004525 14.2171041,16.2004525 C13.8170329,16.2004525 13.5327994,16.0336313 13.3765972,15.9372502 C13.2407874,15.8666106 13.1529105,15.8729961 13.0648234,15.9825473 L12.9969185,16.0719443 C12.9222862,16.1814956 12.9296443,16.2904482 13.0450616,16.3608882 Z M9.27224119,16.4249427 C9.27224119,16.5662219 9.35339068,16.6372606 9.4955074,16.6372606 L9.70594946,16.6372606 C9.85479359,16.6372606 9.92984636,16.5662219 9.92984636,16.4249427 L9.92984636,15.0831896 C9.92984636,14.4089207 10.4106466,13.882516 11.0749791,13.882516 C11.6241047,13.882516 11.7189192,14.242299 11.7189192,14.6978645 L11.7189192,16.4249427 C11.7189192,16.5662219 11.8000687,16.6372606 11.9423957,16.6372606 L12.1524173,16.6372606 C12.3014716,16.6372606 12.3761039,16.5662219 12.3761039,16.4249427 L12.3761039,14.5563858 C12.3761039,13.7284658 12.0105108,13.3110138 11.2038512,13.3110138 C10.4514315,13.3110138 10.0381157,13.7929195 9.90230599,14.0750787 L9.88885115,14.0750787 C9.88885115,14.0750787 9.90924364,13.9848836 9.90924364,13.8889015 L9.90924364,13.5997581 C9.90924364,13.4590775 9.83419087,13.3878393 9.68555697,13.3878393 L9.4955074,13.3878393 C9.35339068,13.3878393 9.27224119,13.4590775 9.27224119,13.5997581 L9.27224119,16.4249427 Z M3.58042465,16.4249427 C3.58042465,16.5662219 3.6619946,16.6372606 3.80432155,16.6372606 L4.01413291,16.6372606 C4.16339751,16.6372606 4.23760935,16.5662219 4.23760935,16.4249427 L4.23760935,15.2951083 C4.23760935,14.653166 4.56304822,13.9661262 5.23431845,13.9661262 C5.39010023,13.9661262 5.47818737,13.8950875 5.47818737,13.7540078 L5.47818737,13.5740165 C5.47818737,13.4329369 5.4176406,13.3622973 5.26143835,13.3622973 C4.74637037,13.3622973 4.36038473,13.7861349 4.21112014,14.2161584 L4.19682437,14.2161584 C4.19682437,14.2161584 4.21763732,14.1072058 4.21763732,13.9729107 L4.21763732,13.5997581 C4.21763732,13.4590775 4.14300502,13.3878393 3.99395066,13.3878393 L3.80432155,13.3878393 C3.6619946,13.3878393 3.58042465,13.4590775 3.58042465,13.5997581 L3.58042465,16.4249427 Z M1.36500163,13.8950875 L1.12807036,13.8950875 C0.985743411,13.8950875 0.911111111,13.8182619 0.911111111,13.6833682 L0.911111111,13.5997581 C0.911111111,13.4652635 0.985743411,13.3878393 1.13458755,13.3878393 L1.37908716,13.3878393 L1.37908716,12.7073845 C1.37908716,12.5657062 1.46023665,12.4952661 1.60277383,12.4952661 L1.79892013,12.4952661 C1.94839496,12.4952661 2.02281702,12.5657062 2.02281702,12.7073845 L2.02281702,13.3878393 L2.68672914,13.3878393 C2.83599374,13.3878393 2.91041581,13.4652635 2.91041581,13.5997581 L2.91041581,13.6833682 C2.91041581,13.8182619 2.83599374,13.8950875 2.69387702,13.8950875 L2.02281702,13.8950875 L2.02281702,15.3721334 C2.02281702,15.9885337 2.42246773,16.0845158 2.6732743,16.1042709 C2.84944858,16.1170419 2.91041581,16.1683255 2.91041581,16.3159902 L2.91041581,16.4510834 C2.91041581,16.5985485 2.82232867,16.6628026 2.63963721,16.6628026 C1.96184979,16.6628026 1.36500163,16.2904482 1.36500163,15.4687141 L1.36500163,13.8950875 Z" id="Fill-4" fill="#F5C756"></path>
                        </g>
                    </g>
                </g>
            </g>
        </g>
    </g>
</svg>